<svg width="162" height="51" viewBox="0 0 162 51" fill="none" xmlns="http://www.w3.org/2000/svg">
<path d="M156.5 25.5C156.5 28.8034 154.505 32.0288 150.717 35.034C146.934 38.0351 141.428 40.7597 134.581 43.0572C120.892 47.6504 101.948 50.5 81 50.5C60.0522 50.5 41.1084 47.6504 27.4189 43.0572C20.5716 40.7597 15.0664 38.0351 11.2832 35.034C7.49474 32.0288 5.5 28.8034 5.5 25.5C5.5 22.1966 7.49474 18.9712 11.2832 15.966C15.0664 12.9649 20.5716 10.2403 27.4189 7.94281C41.1084 3.34961 60.0522 0.5 81 0.5C101.948 0.5 120.892 3.34961 134.581 7.94281C141.428 10.2403 146.934 12.9649 150.717 15.966C154.505 18.9712 156.5 22.1966 156.5 25.5Z" stroke="#DC5A3E"/>
<path d="M161.5 25C161.5 27.7793 159.485 30.5423 155.555 33.1466C151.644 35.738 145.952 38.091 138.873 40.0749C124.722 44.0407 105.145 46.5 83.5 46.5C61.855 46.5 42.2776 44.0407 28.127 40.0749C21.0483 38.091 15.3561 35.738 11.4451 33.1466C7.51471 30.5423 5.5 27.7793 5.5 25C5.5 22.2207 7.51471 19.4577 11.4451 16.8534C15.3561 14.262 21.0483 11.909 28.127 9.9251C42.2776 5.95935 61.855 3.5 83.5 3.5C105.145 3.5 124.722 5.95935 138.873 9.9251C145.952 11.909 151.644 14.262 155.555 16.8534C159.485 19.4577 161.5 22.2207 161.5 25Z" stroke="#DC5A3E"/>
<path d="M148.5 25.5C148.5 28.2171 146.588 30.9144 142.864 33.4557C139.155 35.9859 133.757 38.2842 127.041 40.2224C113.616 44.0968 95.0394 46.5 74.5 46.5C53.9606 46.5 35.3845 44.0968 21.9592 40.2224C15.2432 38.2842 9.84456 35.9859 6.13638 33.4557C2.41173 30.9144 0.5 28.2171 0.5 25.5C0.5 22.7829 2.41173 20.0856 6.13638 17.5442C9.84456 15.0141 15.2432 12.7158 21.9592 10.7776C35.3845 6.90318 53.9606 4.5 74.5 4.5C95.0394 4.5 113.616 6.90318 127.041 10.7776C133.757 12.7158 139.155 15.0141 142.864 17.5442C146.588 20.0856 148.5 22.7829 148.5 25.5Z" stroke="#DC5A3E"/>
<rect x="124.685" y="8" width="19" height="5" transform="rotate(19.6917 124.685 8)" fill="#FBBB3C"/>
</svg>
